<?xml version="1.0" encoding="utf-8"?>
<!-- Generator: Adobe Illustrator 21.1.0, SVG Export Plug-In . SVG Version: 6.00 Build 0)  -->
<svg version="1.1" id="Layer_1" xmlns="http://www.w3.org/2000/svg" xmlns:xlink="http://www.w3.org/1999/xlink" x="100%" y="100%"
	 viewBox="0 0 2258 324.8" style="enable-background:new 0 0 2258 324.8;" xml:space="preserve">
<style type="text/css">
	.st0{fill:#000000;}
	.st1{display:none;}
	.st2{clip-path:url(#SVGID_2_);fill:#009ACE;}
	.st3{clip-path:url(#SVGID_2_);fill:#00A9DB;}
	.st4{clip-path:url(#SVGID_2_);fill:#00B2E0;}
	.st5{clip-path:url(#SVGID_2_);fill:#20BEE8;}
	.st6{clip-path:url(#SVGID_4_);fill:#20BEE8;}
	.st7{clip-path:url(#SVGID_6_);fill:#00B2E0;}
	.st8{clip-path:url(#SVGID_8_);fill:#00A9DB;}
	.st9{clip-path:url(#SVGID_10_);fill:#009ACE;}
	.st10{fill:#009ACE;}
	.st11{clip-path:url(#SVGID_12_);fill:#009ACE;}
	.st12{fill:#E6E7E8;}
</style>
<g>
	<path class="st0" d="M712.8,143.3c9-14,14.2-30.7,14.2-48.5c0-49.7-40.3-90-90-90c-21.4,0-41.1,7.5-56.6,20h51.4V25
		c1.7-0.1,3.4-0.2,5.2-0.2c38.7,0,70,31.3,70,70c0,17.9-6.7,34.2-17.7,46.6L546.9,304.9l0.2,0.1v19.7h180v-20H573.2L712.8,143.3z"/>
	<path class="st0" d="M547.6,84.8c-0.4,3.3-0.6,6.6-0.6,10c0,30.7,15.4,57.8,38.9,74.1l13.3-15.2c-19.3-12.5-32.1-34.2-32.1-58.8
		c0-3.4,0.3-6.7,0.7-10H547.6z"/>
</g>
<polygon class="st0" points="325.3,24.8 325.3,84.8 445.3,84.8 445.3,324.8 505.3,324.8 505.3,24.8 "/>
<polygon class="st0" points="285.3,264.8 285.3,24.8 225.3,24.8 225.3,324.8 405.3,324.8 405.3,264.8 "/>
<polygon class="st0" points="185.3,24.8 155.3,24.8 5.3,324.8 65.3,324.8 125.3,204.8 185.3,204.8 185.3,144.8 155.3,144.8 
	185.3,84.8 "/>
<rect x="490.4" y="-55.2" class="st1" width="180" height="320"/>
<path class="st0" d="M768.6,25.3h13.8l95.1,285.6h0.8L973,25.3h13.4v299H978V36.2l-0.8-0.8v0.8l-94.6,288.1h-10.1L777.8,36.2H777
	v288.1h-8.4V25.3z"/>
<path class="st0" d="M1105.3,25.3h10.1l94.6,299h-8.4l-30.6-97.2h-121.9l-30.6,97.2h-8.4L1105.3,25.3z M1110.8,32.8h-0.8
	l-58.2,186.8H1169L1110.8,32.8z"/>
<path class="st0" d="M1401.8,254.4h-0.8c-9.2,36.4-33.9,69.9-78.7,69.9c-77.9,0-95.5-80.4-95.5-154.5c0-74.1,17.6-154.5,95.5-154.5
	c63.2,0,81.2,54,83.3,90.5h-8.4c-2.5-46.9-25.1-82.9-74.5-82.9c-69.5,0-87.5,71.2-87.5,147c0,75.8,18,147,87.5,147
	c31.8,0,77.1-22.6,79.2-117.3v-17.6h-93v-7.5h101.3v149.9h-8.4V254.4z"/>
<path class="st0" d="M1524.1,25.3h10.1l94.6,299h-8.4l-30.6-97.2H1468l-30.6,97.2h-8.4L1524.1,25.3z M1529.6,32.8h-0.8l-58.2,186.8
	h117.3L1529.6,32.8z"/>
<path class="st0" d="M1638,315.9l160-283.1h-150.8v-7.5h159.1v8.4l-160,283.1h160.8v7.5H1638V315.9z"/>
<path class="st0" d="M1842.4,25.3h8.4v299h-8.4V25.3z"/>
<path class="st0" d="M1899.7,25.3h13.8l142,285.6h0.8V25.3h8.4v299h-12.1L1909,32.8h-0.8v291.5h-8.4V25.3z"/>
<path class="st0" d="M2111.2,25.3h136.1v7.5h-127.7v131.5h118.5v7.5h-118.5v144.9h131.1v7.5h-139.5V25.3z"/>
<g>
	<path class="st0" d="M518.9,34.1h2l13.4,40.4h0.1l13.4-40.4h1.9v42.3h-1.2V35.6l-0.1-0.1v0.1L535,76.3h-1.4l-13.4-40.7h-0.1v40.7
		h-1.2V34.1z"/>
	<path class="st0" d="M556.3,34.1h19.2v1.1h-18.1v18.6h16.8v1.1h-16.8v20.5h18.5v1.1h-19.7V34.1z"/>
	<path class="st0" d="M580.4,34.1h10.2c11.1,0,13.7,9.2,13.7,20.4c0,17.3-6.7,21.8-15.5,21.8h-8.4V34.1z M581.6,75.3h7.9
		c9.5,0,13.7-7.4,13.7-20.8c0-12.7-3.2-19.4-13-19.4h-8.5V75.3z"/>
	<path class="st0" d="M610.4,34.1h1.2v42.3h-1.2V34.1z"/>
	<path class="st0" d="M628.9,34.1h1.4l13.4,42.3h-1.2l-4.3-13.7H621l-4.3,13.7h-1.2L628.9,34.1z M629.7,35.1h-0.1l-8.2,26.4h16.6
		L629.7,35.1z"/>
</g>
</svg>
