<?xml version="1.0" encoding="utf-8"?>
<!-- Generator: Adobe Illustrator 21.1.0, SVG Export Plug-In . SVG Version: 6.00 Build 0)  -->
<svg version="1.1" id="Layer_1" xmlns="http://www.w3.org/2000/svg" xmlns:xlink="http://www.w3.org/1999/xlink" x="0px" y="0px"
	 viewBox="0 0 1920 1080" style="enable-background:new 0 0 1920 1080;" xml:space="preserve">
<style type="text/css">
	.st0{fill:#FFFFFF;}
</style>
<path class="st0" d="M267.8,151.8l102.8-32l56.6,41.7L267.8,151.8z M380.1,54.7l-10.4,62.7l-107.2,33.6L380.1,54.7z M371.9,117.4
	l11.5-64.8l49.4,108.8L371.9,117.4z M384.4,47.7l-129.5,106l182.6,11.1L384.4,47.7z"/>
<path class="st0" d="M75.1,458l33-10.4l-50,60.7L75.1,458z M51.9,435.5l22,22.3l-17.6,52.4L51.9,435.5z M52.1,433.5l57.6,11.8
	l-35.2,11.5L52.1,433.5z M55.1,514l57.2-69.5l-62-12.7L55.1,514z"/>
<path class="st0" d="M229.4,446.4l11.4-25.1l32.3-7.3L229.4,446.4z M216.5,396.4l55,16.5l-31.2,7.1L216.5,396.4z M217.1,398.6
	l21.9,22l-10.1,23.8L217.1,398.6z M215,395.1l13.7,53.4l47.7-35.4L215,395.1z"/>
<path class="st0" d="M303.3,288.3l-20.8-69.6l45.9-20.5L303.3,288.3z M234,192.7l46.6,26.4l21.8,71.2L234,192.7z M328.1,196.8
	l-45.9,20.2l-50-26.5L328.1,196.8z M227.9,188.6l75,104.7l27.3-97.7L227.9,188.6z"/>
<path class="st0" d="M376.8,414.5L518.6,456l43.1,55.5L376.8,414.5z M521.7,456.3l53.6-45.8l-8,103.2L521.7,456.3z M382.2,413.9
	l193.5-7.9l-56.4,48.2L382.2,413.9z M364.3,411.6l205.5,106.8l9-115.9L364.3,411.6z"/>
<path class="st0" d="M57,565.9l53.2-5.2l64.2,80.5L57,565.9z M111.4,560l-2.5-50.6l69,133.8L111.4,560z M106.5,505.8l3.1,52.7
	l-50.5,4.9L106.5,505.8z M53.6,566.7L184,650l-77.1-148L53.6,566.7z"/>
<path class="st0" d="M215.4,492.1l-31.5-41.2l11.7-50.6L215.4,492.1z M127.1,484.8l56.1-31.7l33.2,44L127.1,484.8z M193.3,401.9
	l-11.3,49.7l-55,30.6L193.3,401.9z M121,486.3l98.4,13.4l-23.1-104L121,486.3z"/>
<path class="st0" d="M231,260.6l-14.7,67.4l-80.3,6L231,260.6z M329.2,391.4L219,329.9l16.2-72.8L329.2,391.4z M131.4,338.4
	l85.5-6.2l115.3,65.5L131.4,338.4z M343,404.5L235.7,251.2l-113.9,88L343,404.5z"/>
<path class="st0" d="M1777.9,476.3l96,44.1l-154.8,25.5L1777.9,476.3z M1687.8,330.2l88.2,142l-64,74.9L1687.8,330.2z M1779.9,470.9
	l-91.6-150L1881.9,518L1779.9,470.9z M1680.1,305.9l27.7,247.9l185.6-30.6L1680.1,305.9z"/>
<path class="st0" d="M1527,908.9l-46-131.6l132.6-92.3L1527,908.9z M1218.4,782.7l255.7-6l49,142.5L1218.4,782.7z M1616.7,672.7
	l-141.3,97.9l-268.9,4.2L1616.7,672.7z M1180.5,774l348.2,156l103.8-268.4L1180.5,774z"/>
<path class="st0" d="M1555.6,488.1l56.1,0.9l39.9,54.8L1555.6,488.1z M1638.5,423l13.7,116.8l-38.6-52.8L1638.5,423z M1635,426
	l-23.3,59l-52.6,0.4L1635,426z M1639.7,419.2l-88.6,69.3l104.8,60.8L1639.7,419.2z"/>
<path class="st0" d="M1107.1,903.2l166.8-14l-237.6,130L1107.1,903.2z M1000.5,775l98.1,123.3l-63.9,110.4L1000.5,775z M998.3,763.8
	l267.8,119.1l-161,13.8L998.3,763.8z M1031.6,1029l259.5-142L991.7,756.4L1031.6,1029z"/>
<path class="st0" d="M1541.7,638.9l34.7-43.1l68.1,3.3L1541.7,638.9z M1539.9,533.8l101.9,62.4l-65.8-3L1539.9,533.8z M1540.2,538.4
	l33.1,55l-31.7,41.1L1540.2,538.4z M1537.6,530.4l1.7,112.2l112.3-43.4L1537.6,530.4z"/>
<path class="st0" d="M1401.9,955.3l-70.2-55.3l109.3,46.5L1401.9,955.3z M1383,1004l20.2-46.8l36.4-8.2L1383,1004z M1332.4,902.6
	l68.5,54.7l-20,48.1L1332.4,902.6z M1381.3,1009l64.7-62.9l-119.2-50.7L1381.3,1009z"/>
<path class="st0" d="M1858.3,582.5l-66.7,44.4l-81.3-21L1858.3,582.5z M1845.4,714.5l-50.2-86.3l71.3-46.9L1845.4,714.5z
	 M1713,609.5l79.8,20.3l48.4,84.5L1713,609.5z M1847.7,723.6l22.9-146.8L1703,604.5L1847.7,723.6z"/>
<path class="st0" d="M1698.9,679.4l4.5,119.7l-90.2,87.2L1698.9,679.4z M1857.1,799l-149.2-3.4l-4.1-127.5L1857.1,799z
	 M1619.9,885.8l88.3-85.8l145.6,4.3L1619.9,885.8z M1870.5,803.2l-169.2-143.8l-95.6,235.2L1870.5,803.2z"/>
</svg>
